<?xml version="1.0" encoding="UTF-8" standalone="no"?>
<!-- Created with Inkscape (http://www.inkscape.org/) -->

<svg
   xmlns:dc="http://purl.org/dc/elements/1.1/"
   xmlns:cc="http://creativecommons.org/ns#"
   xmlns:rdf="http://www.w3.org/1999/02/22-rdf-syntax-ns#"
   xmlns:svg="http://www.w3.org/2000/svg"
   xmlns="http://www.w3.org/2000/svg"
   xmlns:xlink="http://www.w3.org/1999/xlink"
   xmlns:sodipodi="http://sodipodi.sourceforge.net/DTD/sodipodi-0.dtd"
   xmlns:inkscape="http://www.inkscape.org/namespaces/inkscape"
   width="5in"
   height="5in"
   viewBox="0 0 450.00001 450.00001"
   id="svg2"
   version="1.1"
   inkscape:version="0.91 r13725"
   sodipodi:docname="FBgenotyper2.svg">
  <sodipodi:namedview
     id="base"
     pagecolor="#fcfcfc"
     bordercolor="#666666"
     borderopacity="1.0"
     inkscape:pageopacity="0"
     inkscape:pageshadow="2"
     inkscape:zoom="0.98994949"
     inkscape:cx="182.41763"
     inkscape:cy="260.91362"
     inkscape:document-units="px"
     inkscape:current-layer="layer1"
     showgrid="false"
     units="in"
     inkscape:window-width="1440"
     inkscape:window-height="851"
     inkscape:window-x="44"
     inkscape:window-y="10"
     inkscape:window-maximized="0" />
  <defs
     id="defs4">
    <inkscape:path-effect
       effect="envelope"
       id="path-effect4353"
       is_visible="true"
       yy="true"
       xx="true"
       bendpath1="m 105.71575,399.31734 c 68.57356,-37.92817 129.80677,-24.17255 188.93534,0"
       bendpath2="m 294.65109,399.31734 0,19.80248"
       bendpath3="m 105.71575,419.11982 c 64.05037,30.01396 126.78297,23.13015 188.93534,0"
       bendpath4="m 105.71575,399.31734 0,19.80248"
       bendpath1-nodetypes="cc"
       bendpath3-nodetypes="cc" />
    <inkscape:path-effect
       bendpath3-nodetypes="cc"
       bendpath1-nodetypes="cssc"
       bendpath2-nodetypes="cc"
       bendpath4="m 86.112149,298.16474 0,64.64155"
       bendpath3="m 86.112149,362.80629 c 169.415541,67.59519 283.055491,59.92797 357.965961,0"
       bendpath2="m 444.07811,298.16474 c -0.005,21.53376 -10.72484,16.13386 0,64.64155"
       bendpath1="m 86.112149,298.16474 c 21.913591,8.66721 45.669421,-37.09096 74.355801,-12.29383 27.17098,23.48718 140.95262,69.91779 175.67911,16.55783 30.15631,-46.33754 74.7369,-4.44912 107.93105,-4.264"
       xx="true"
       yy="true"
       is_visible="true"
       id="path-effect8716"
       effect="envelope" />
    <inkscape:path-effect
       crossing_points_vector=""
       switcher_size="15"
       add_other_stroke_width="true"
       add_stroke_width="true"
       prop_to_stroke_width="true"
       interruption_width="3"
       is_visible="true"
       id="path-effect8703"
       effect="knot" />
    <inkscape:path-effect
       effect="envelope"
       id="path-effect5795"
       is_visible="true"
       yy="true"
       xx="false"
       bendpath1="m 13.884766,304.46762 c 137.057294,-45.12894 274.114584,-48.18376 411.171874,0"
       bendpath2="m 425.05664,304.46762 0,30.25391"
       bendpath3="m 13.884766,334.72153 c 137.057294,66.31204 274.114584,70.80051 411.171874,0"
       bendpath4="m 13.884766,304.46762 0,30.25391"
       bendpath1-nodetypes="cc"
       bendpath3-nodetypes="cc" />
    <linearGradient
       inkscape:collect="always"
       id="linearGradient5663">
      <stop
         style="stop-color:#e9e6e6;stop-opacity:1;"
         offset="0"
         id="stop5665" />
      <stop
         style="stop-color:#e9e6e6;stop-opacity:0;"
         offset="1"
         id="stop5667" />
    </linearGradient>
    <radialGradient
       gradientUnits="userSpaceOnUse"
       gradientTransform="matrix(-1.9148476,-0.70084074,0.09925352,-1.3115288,508.7443,411.6125)"
       r="104.35471"
       fy="123.87248"
       fx="178.75345"
       cy="123.87248"
       cx="178.75345"
       id="radialGradient8739"
       xlink:href="#linearGradient5663"
       inkscape:collect="always" />
  </defs>
  <metadata
     id="metadata7">
    <rdf:RDF>
      <cc:Work
         rdf:about="">
        <dc:format>image/svg+xml</dc:format>
        <dc:type
           rdf:resource="http://purl.org/dc/dcmitype/StillImage" />
        <dc:title></dc:title>
      </cc:Work>
    </rdf:RDF>
  </metadata>
  <g
     inkscape:label="Layer 1"
     inkscape:groupmode="layer"
     id="layer1"
     transform="translate(0,-602.36215)">
    <rect
       style="opacity:0.931;fill:#000000;fill-opacity:1;fill-rule:nonzero;stroke:#000000;stroke-width:4.87135839;stroke-linecap:butt;stroke-linejoin:round;stroke-miterlimit:4;stroke-dasharray:none;stroke-dashoffset:0;stroke-opacity:1"
       id="rect4164"
       width="230.04533"
       height="36.463917"
       x="779.67902"
       y="272.91986"
       ry="16.322073"
       transform="matrix(0.61343108,0.78974826,-0.77257736,0.63492064,0,0)" />
    <path
       inkscape:connector-curvature="0"
       style="opacity:0.931;fill:none;fill-opacity:1;fill-rule:evenodd;stroke:#c68787;stroke-width:4.71104574;stroke-linecap:butt;stroke-linejoin:round;stroke-miterlimit:4;stroke-dasharray:none;stroke-dashoffset:0;stroke-opacity:1"
       d="m 4.3691653,744.65501 c 3.9684682,-13.35569 9.0806287,-19.79598 16.8474257,-10.18479 7.766798,9.61117 16.212631,23.32818 21.201523,16.14258 4.988892,-7.18564 7.65797,-28.39819 13.660004,-29.45777 6.002029,-1.05962 15.343075,18.07035 22.368201,23.19697 7.025123,5.1266 10.586744,-10.68915 14.826685,-22.40336 4.239936,-11.71424 11.139846,-7.34478 19.180776,3.92399 8.04094,11.26876 14.93818,15.62209 19.18077,3.92401 4.24262,-11.69813 7.80619,-27.50206 14.8267,-22.40338 7.02051,5.09871 16.36083,24.22431 22.36819,23.19697 6.00738,-1.02732 8.67573,-22.24422 13.66001,-29.45776 4.98427,-7.21353 13.43206,6.51529 21.20152,16.14257 7.76946,9.6273 12.87898,3.1709 16.84742,-10.18479 3.96847,-13.35569 9.08063,-19.79596 16.84743,-10.18479 7.7668,9.61118 16.21264,23.32819 21.20152,16.14258 4.9889,-7.18563 7.65797,-28.39818 13.66001,-29.45776 6.00203,-1.05964 15.34308,18.07035 22.3682,23.19696 7.02513,5.12659 10.58674,-10.68914 14.8267,-22.40336 4.23992,-11.71423 11.13984,-7.34477 19.18076,3.92399 8.04093,11.26877 14.93817,15.6221 19.1808,3.924 4.24259,-11.69812 7.80616,-27.50205 14.82666,-22.40335 7.02051,5.09868 16.36083,24.22429 22.36822,23.19695 6.00735,-1.02731 8.67573,-22.24423 13.65998,-29.45775 4.9843,-7.21354 13.43208,6.51527 21.20153,16.14256 7.76947,9.62731 12.87896,3.1709 16.84743,-10.18478"
       title="sin(x)"
       id="path8601" />
    <path
       id="path8641"
       title="sin(x)"
       d="m 12.144538,744.57646 c 3.968468,-13.35568 9.080628,-19.79597 16.847425,-10.18479 7.766798,9.61118 16.212631,23.32819 21.201524,16.14258 4.988892,-7.18563 7.657969,-28.39818 13.660003,-29.45776 6.002029,-1.05963 15.343075,18.07035 22.368201,23.19696 7.025123,5.1266 10.586744,-10.68914 14.826689,-22.40335 4.23993,-11.71424 11.13985,-7.34478 19.18077,3.92399 8.04094,11.26876 14.93818,15.62209 19.18078,3.924 4.24261,-11.69812 7.80618,-27.50206 14.82669,-22.40337 7.02051,5.0987 16.36083,24.22431 22.36819,23.19696 6.00738,-1.02731 8.67573,-22.24421 13.66002,-29.45775 4.98426,-7.21354 13.43205,6.51528 21.20152,16.14256 7.76945,9.62731 12.87897,3.17091 16.84741,-10.18478 3.96847,-13.3557 9.08064,-19.79597 16.84744,-10.18479 7.76679,9.61117 16.21263,23.32818 21.20152,16.14258 4.98889,-7.18564 7.65797,-28.39819 13.66001,-29.45777 6.00202,-1.05964 15.34308,18.07035 22.36819,23.19697 7.02513,5.12659 10.58674,-10.68915 14.82671,-22.40337 4.23991,-11.71423 11.13983,-7.34477 19.18076,3.92399 8.04092,11.26877 14.93816,15.62211 19.18079,3.924 4.2426,-11.69811 7.80617,-27.50204 14.82666,-22.40335 7.02051,5.09869 16.36083,24.2243 22.36822,23.19695 6.00735,-1.0273 8.67573,-22.24422 13.65999,-29.45775 4.98429,-7.21354 13.43208,6.51527 21.20152,16.14257 7.76948,9.6273 12.87896,3.1709 16.84743,-10.18479"
       style="opacity:1;fill:none;fill-opacity:1;fill-rule:evenodd;stroke:#c68787;stroke-width:4.71104574;stroke-linecap:butt;stroke-linejoin:round;stroke-miterlimit:4;stroke-dasharray:none;stroke-dashoffset:0;stroke-opacity:1"
       inkscape:connector-curvature="0" />
  </g>
  <g
     inkscape:groupmode="layer"
     id="layer2"
     inkscape:label="Layer 2">
    <ellipse
       style="opacity:0.931;fill:#ffffff;fill-opacity:1;fill-rule:nonzero;stroke:#000000;stroke-width:6.04798746;stroke-linecap:butt;stroke-linejoin:round;stroke-miterlimit:4;stroke-dasharray:none;stroke-dashoffset:0;stroke-opacity:1"
       id="path4136"
       cx="166.2343"
       cy="138.09731"
       rx="101.33071"
       ry="102.95805"
       transform="matrix(0.9972959,-0.07349075,0.24894325,0.96851807,0,0)" />
    <ellipse
       transform="matrix(0.9972959,-0.07349075,0.24894325,0.96851807,0,0)"
       ry="102.95805"
       rx="101.33071"
       cy="134.03307"
       cx="168.95406"
       id="ellipse4175"
       style="opacity:0.931;fill:#ffffff;fill-opacity:1;fill-rule:nonzero;stroke:#000000;stroke-width:6.04798746;stroke-linecap:butt;stroke-linejoin:round;stroke-miterlimit:4;stroke-dasharray:none;stroke-dashoffset:0;stroke-opacity:1" />
    <ellipse
       style="opacity:0.931;fill:#ffffff;fill-opacity:1;fill-rule:nonzero;stroke:#000000;stroke-width:6.04798746;stroke-linecap:butt;stroke-linejoin:round;stroke-miterlimit:4;stroke-dasharray:none;stroke-dashoffset:0;stroke-opacity:1"
       id="ellipse4177"
       cx="171.67381"
       cy="129.96883"
       rx="101.33071"
       ry="102.95805"
       transform="matrix(0.9972959,-0.07349075,0.24894325,0.96851807,0,0)" />
    <ellipse
       transform="matrix(0.9972959,-0.07349075,0.24894325,0.96851807,0,0)"
       ry="102.95805"
       rx="101.33071"
       cy="129.96883"
       cx="171.67381"
       id="ellipse4183"
       style="opacity:0.931;fill:none;fill-opacity:1;fill-rule:nonzero;stroke:#000000;stroke-width:6.04798746;stroke-linecap:butt;stroke-linejoin:round;stroke-miterlimit:4;stroke-dasharray:none;stroke-dashoffset:0;stroke-opacity:1" />
    <ellipse
       transform="matrix(0.9972959,-0.07349075,0.24894325,0.96851807,0,0)"
       ry="102.95805"
       rx="101.33071"
       cy="129.96883"
       cx="171.67381"
       id="ellipse4185"
       style="opacity:0.931;fill:#ffffff;fill-opacity:1;fill-rule:nonzero;stroke:#000000;stroke-width:6.04798746;stroke-linecap:butt;stroke-linejoin:round;stroke-miterlimit:4;stroke-dasharray:none;stroke-dashoffset:0;stroke-opacity:1" />
    <ellipse
       style="opacity:0.931;fill:#ffffff;fill-opacity:1;fill-rule:nonzero;stroke:#000000;stroke-width:6.04798746;stroke-linecap:butt;stroke-linejoin:round;stroke-miterlimit:4;stroke-dasharray:none;stroke-dashoffset:0;stroke-opacity:1"
       id="ellipse4191"
       cx="174.03369"
       cy="127.93671"
       rx="101.33071"
       ry="102.95805"
       transform="matrix(0.9972959,-0.07349075,0.24894325,0.96851807,0,0)" />
    <ellipse
       transform="matrix(0.9972959,-0.07349075,0.24894325,0.96851807,0,0)"
       ry="102.95805"
       rx="101.33071"
       cy="125.9046"
       cx="176.39357"
       id="ellipse4193"
       style="opacity:0.931;fill:#ffffff;fill-opacity:1;fill-rule:nonzero;stroke:#000000;stroke-width:6.04798746;stroke-linecap:butt;stroke-linejoin:round;stroke-miterlimit:4;stroke-dasharray:none;stroke-dashoffset:0;stroke-opacity:1" />
    <ellipse
       style="opacity:0.931;fill:url(#radialGradient8739);fill-opacity:1;fill-rule:evenodd;stroke:#000000;stroke-width:6.04798746;stroke-linecap:butt;stroke-linejoin:round;stroke-miterlimit:4;stroke-dasharray:none;stroke-dashoffset:0;stroke-opacity:1"
       id="ellipse4195"
       cx="178.75345"
       cy="123.87248"
       rx="101.33071"
       ry="102.95805"
       transform="matrix(0.9972959,-0.07349075,0.24894325,0.96851807,0,0)" />
    <text
       sodipodi:linespacing="125%"
       id="text8655"
       y="267.14285"
       x="-23.571428"
       style="font-style:normal;font-weight:normal;font-size:40px;line-height:125%;font-family:Sans;letter-spacing:0px;word-spacing:0px;fill:#000000;fill-opacity:1;stroke:none;stroke-width:1px;stroke-linecap:butt;stroke-linejoin:miter;stroke-opacity:1"
       xml:space="preserve"><tspan
         y="267.14285"
         x="-23.571428"
         id="tspan8657"
         sodipodi:role="line" /></text>
    <g
       style="font-style:normal;font-variant:normal;font-weight:normal;font-stretch:normal;font-size:26.18171501px;line-height:125%;font-family:Sans;-inkscape-font-specification:'Sans, Normal';text-align:start;letter-spacing:0px;word-spacing:0px;writing-mode:lr-tb;text-anchor:start;fill:#c68787;fill-opacity:1;stroke:none;stroke-width:1px;stroke-linecap:butt;stroke-linejoin:miter;stroke-opacity:1"
       id="text8672"
       inkscape:path-effect="#path-effect4353"
       transform="matrix(0.94839257,-0.15929939,0.15929939,0.94839257,-45.666852,-247.69092)">
      <path
         d="m 105.58996,399.29101 c 3.4855,-0.93061 6.96776,-2.0347 10.44814,-3.23657 0.43144,1.31029 0.68871,2.51837 0.84275,3.62255 -2.72083,0.53382 -5.45231,1.0124 -8.19698,1.41047 0.19865,1.88016 -0.16351,4.25546 -0.29368,5.95055 2.61184,-0.0288 5.19722,-0.0826 7.76363,-0.15596 -0.0341,0.80571 -0.0545,1.53076 -0.0534,2.30613 -2.58064,0.019 -5.1718,0.0327 -7.79931,0.0407 0.002,2.11669 0.82922,6.98614 0.11327,9.55223 -0.83784,-0.15988 -1.67649,-0.31311 -2.51584,-0.45885 -0.1369,0.47008 -0.53263,-19.50161 -0.30858,-19.03123 z"
         id="path4331"
         inkscape:original-d="m 105.71575,399.66251 10.96871,0 0,2.17329 -8.38634,0 0,5.62498 7.56816,0 0,2.17328 -7.56816,0 0,9.11502 -2.58237,0 0,-19.08657 z"
         inkscape:connector-curvature="0"
         style="fill:#c68787;fill-opacity:1" />
      <path
         d="m 123.72665,409.11784 c 0.005,1.80495 0.21051,6.03108 -0.0649,9.07769 1.35647,0.19638 2.71352,0.39957 4.06817,0.60713 1.37241,0.21028 2.41673,-0.17525 3.14877,-1.12935 0.73363,-0.95817 1.11913,-2.42442 1.12551,-4.11117 0.006,-1.67048 -0.35342,-2.78426 -1.02531,-3.47576 -0.66974,-0.70855 -1.69598,-1.0353 -3.08887,-1.01774 -1.38442,0.0174 -2.77104,0.0339 -4.16336,0.0492 z m -0.34838,-10.91175 c 0.49957,3.39926 0.40248,6.42615 0.36933,8.49617 1.27986,-0.0524 2.55642,-0.10843 3.82991,-0.16729 1.25776,-0.0581 2.20006,-0.39773 2.80522,-1.07585 0.61049,-0.68684 0.92368,-1.75343 0.85352,-3.36372 -0.0706,-1.6212 -0.5025,-3.00846 -1.22298,-3.87228 -0.72127,-0.87666 -1.69418,-1.17316 -2.92566,-0.88027 -1.23617,0.29401 -2.473,0.58261 -3.70934,0.86324 z m -3.41493,-3.54497 c 2.0968,-0.76239 4.20479,-1.55456 6.31336,-2.35738 1.9136,-0.72859 3.62457,-0.13534 5.0687,1.72378 1.419,1.82678 2.26877,4.50654 2.41949,7.24932 0.11423,2.07884 -0.15959,3.49542 -0.68644,4.47578 -0.53118,0.98842 -1.33911,1.56896 -2.38891,1.8177 1.26425,0.30166 2.25215,1.00279 2.95177,2.10715 0.70404,1.08732 1.08356,2.5104 1.05942,4.44368 -0.0322,2.58021 -0.75644,5.14719 -2.15535,7.01012 -1.42444,1.89692 -3.20697,2.62394 -5.31916,2.06875 -2.22115,-0.58383 -4.44852,-1.15934 -6.66398,-1.70946 0.77466,-3.49576 0.90886,-21.73653 -0.5989,-26.82944 z"
         id="path4333"
         inkscape:original-d="m 123.38329,409.63406 0,6.99287 4.14203,0 q 2.0838,0 3.08096,-0.85653 1.00993,-0.86931 1.00993,-2.64629 0,-1.78977 -1.00993,-2.63352 -0.99716,-0.85653 -3.08096,-0.85653 l -4.14203,0 z m 0,-7.8494 0,5.75282 3.82243,0 q 1.89204,0 2.81249,-0.70312 0.93323,-0.71591 0.93323,-2.17329 0,-1.44459 -0.93323,-2.1605 -0.92045,-0.71591 -2.81249,-0.71591 l -3.82243,0 z m -2.58237,-2.12215 6.59656,0 q 2.95311,0 4.55112,1.22727 1.598,1.22727 1.598,3.49004 0,1.75142 -0.81817,2.78692 -0.81818,1.03551 -2.4034,1.29119 1.90482,0.40909 2.95311,1.71306 1.06108,1.29119 1.06108,3.23437 0,2.5568 -1.73863,3.95026 -1.73863,1.39346 -4.94743,1.39346 l -6.85224,0 0,-19.08657 z"
         inkscape:connector-curvature="0"
         style="fill:#c68787;fill-opacity:1" />
      <path
         d="m 151.22346,420.92343 c 0.25942,-4.14569 0.29606,-7.61029 0.29948,-10.16725 -1.37721,-0.0113 -2.78676,-0.0229 -4.16541,-0.0341 5.1e-4,-1.05582 -0.005,-2.20058 -0.0162,-3.26076 2.23413,-0.071 4.45581,-0.14089 6.68695,-0.20832 0.0416,3.60731 0.0722,9.52719 -0.46404,16.64751 -1.15023,1.95659 -2.40617,3.55298 -3.74903,4.56161 -1.34495,0.9827 -2.68475,1.29846 -4.04532,0.93166 -3.01348,-0.8124 -4.69592,-4.63109 -6.03707,-8.94486 -1.27889,-4.16283 -2.16136,-8.2494 -2.1817,-12.06862 -0.0194,-3.6466 0.76747,-8.87213 1.76947,-13.6228 1.09155,-5.17388 2.49906,-9.79355 5.52498,-10.93212 1.23832,-0.46595 2.50479,-0.24352 3.81082,0.66466 1.3111,0.90293 2.57347,2.42403 3.76037,4.37697 0.37158,3.31687 0.60443,6.12983 0.75747,8.47665 -1.08241,-1.96972 -2.23141,-3.60935 -3.42458,-4.66141 -1.19853,-1.05683 -2.37155,-1.45384 -3.54417,-1.15401 -2.32403,0.59424 -3.68668,3.19424 -4.60055,6.47709 -0.86034,3.11804 -1.37366,6.98093 -1.35274,10.31343 0.0212,3.3829 0.60483,6.55371 1.61204,9.23782 1.04217,2.75554 2.53992,4.88357 4.86267,5.28269 0.90084,0.15479 1.71463,0.0791 2.45648,-0.22945 0.7421,-0.33125 1.42221,-0.90677 2.04009,-1.68641 z"
         id="path4335"
         inkscape:original-d="m 151.32921,416.02608 0,-5.1264 -4.21874,0 0,-2.12215 6.77554,0 0,8.19457 q -1.49573,1.06108 -3.29828,1.61079 -1.80255,0.53693 -3.84799,0.53693 -4.47442,0 -7.00566,-2.60794 -2.51845,-2.62073 -2.51845,-7.28691 0,-4.67895 2.51845,-7.2869 2.53124,-2.62073 7.00566,-2.62073 1.86647,0 3.54117,0.46023 1.6875,0.46022 3.10653,1.35511 l 0,2.74857 q -1.43182,-1.21449 -3.04261,-1.82812 -1.61078,-0.61364 -3.38777,-0.61364 -3.50282,0 -5.26702,1.95596 -1.75141,1.95596 -1.75141,5.82952 0,3.86078 1.75141,5.81674 1.7642,1.95596 5.26702,1.95596 1.3679,0 2.44176,-0.23011 1.07386,-0.2429 1.93039,-0.74148 z"
         inkscape:connector-curvature="0"
         style="fill:#c68787;fill-opacity:1" />
      <path
         d="m 156.94144,381.36075 c 4.05724,-1.18806 8.12838,-2.22453 12.25431,-3.08385 0.30664,3.73235 0.53888,7.00311 0.71695,9.84038 -3.1757,0.46411 -6.32492,1.00139 -9.47366,1.6025 0.54695,6.59737 0.71546,11.51185 0.78656,14.91192 2.99391,-0.14777 5.97095,-0.28136 8.97018,-0.39831 0.0277,1.49439 0.0436,2.92866 0.0507,4.29364 -2.99888,0.0277 -5.9725,0.0604 -8.9682,0.0976 0.0206,3.53097 -0.004,8.64882 -0.37789,15.12863 3.21194,0.41606 6.41753,0.79199 9.64545,1.11946 -0.10196,2.38195 -0.24116,5.13172 -0.43441,8.27572 -4.14465,-0.64263 -8.24478,-1.41095 -12.3478,-2.28121 1.34843,-14.45342 1.49165,-30.37607 -0.82218,-49.50651 z"
         id="path4337"
         inkscape:original-d="m 158.64167,399.66251 12.06814,0 0,2.17329 -9.48576,0 0,5.65054 9.08945,0 0,2.17329 -9.08945,0 0,6.91617 9.71587,0 0,2.17328 -12.29825,0 0,-19.08657 z"
         inkscape:connector-curvature="0"
         style="fill:#c68787;fill-opacity:1" />
      <path
         d="m 173.8136,377.39487 c 1.19248,-0.20694 2.38657,-0.39786 3.58295,-0.57238 -2.96742,-18.31896 13.8956,76.0019 9.38754,46.05275 0.18608,-12.05343 0.22344,-22.23154 -0.62616,-47.02807 0.86695,-0.0663 1.73424,-0.12352 2.60209,-0.1717 0.76639,28.13406 0.73635,36.86149 0.33686,59.42051 -1.18064,-0.0558 -2.36028,-0.12419 -3.53964,-0.20499 -1.91073,-21.4643 -5.44332,-28.36528 -8.43508,-44.0222 0.56509,13.35088 0.66023,25.08078 -0.15922,43.21752 -0.84644,-0.10007 -1.69208,-0.20603 -2.53724,-0.31776 0.93269,-18.243 1.00753,-32.7745 -0.6121,-56.37368 z"
         id="path4339"
         inkscape:original-d="m 175.20979,399.66251 3.47726,0 8.46303,15.96727 0,-15.96727 2.50568,0 0,19.08657 -3.47726,0 -8.46304,-15.96726 0,15.96726 -2.50567,0 0,-19.08657 z"
         inkscape:connector-curvature="0"
         style="fill:#c68787;fill-opacity:1" />
      <path
         d="m 202.10649,384.44134 c -0.48306,-0.0188 -0.93925,0.16641 -1.37239,0.5483 0,0 0,0 0,0 -1.29195,1.14003 -2.31568,3.98752 -3.1306,7.64404 -1.06698,4.82576 -1.55562,10.02536 -1.54087,14.87435 0.0147,4.82137 0.53395,9.26976 1.61799,13.38993 0.82517,3.11191 1.85331,5.52622 3.12979,6.49903 0,0 0,0 0,0 0.42894,0.32686 0.87976,0.48802 1.35674,0.47741 0.53914,-0.012 1.04074,-0.24189 1.51144,-0.67726 0,0 0,0 0,0 1.18343,-1.09501 2.12733,-3.45899 2.89101,-6.41081 1.06532,-4.08532 1.61052,-8.48548 1.60672,-13.22302 -0.004,-4.75388 -0.55327,-9.91033 -1.62073,-14.70066 -0.76893,-3.47808 -1.71689,-6.28531 -2.91793,-7.59915 0,0 0,0 0,0 -0.47677,-0.52186 -0.98514,-0.80092 -1.53117,-0.82216 z m 0.0719,-10.75297 c 0.54782,0.0304 1.06965,0.26405 1.56823,0.69307 0,0 0,0 0,0 2.08169,1.79153 3.60894,6.8728 4.84823,12.99571 1.49374,7.34301 2.27993,14.52945 2.28208,20.21047 0.002,5.69046 -0.78799,11.66683 -2.29194,17.93402 -1.23963,5.1401 -2.75981,9.41061 -4.79455,10.89136 0,0 0,0 0,0 -0.4886,0.35551 -0.99949,0.54615 -1.53615,0.56522 -0.4766,0.0169 -0.93672,-0.10193 -1.3825,-0.35374 0,0 0,0 0,0 -2.16065,-1.22047 -3.83524,-5.50839 -5.1728,-10.85616 -1.57224,-6.32007 -2.31228,-12.41074 -2.33319,-18.2602 -0.0209,-5.85174 0.66686,-13.13382 2.20545,-20.57676 1.31492,-6.35724 2.98915,-11.42047 5.19701,-12.84283 0,0 0,0 0,0 0.4541,-0.29262 0.9236,-0.42712 1.41013,-0.40016 z"
         id="path4341"
         inkscape:original-d="m 202.54207,401.41393 q -2.81249,0 -4.47441,2.09658 -1.64915,2.09658 -1.64915,5.71446 0,3.6051 1.64915,5.70169 1.66192,2.09658 4.47441,2.09658 2.81249,0 4.44885,-2.09658 1.64914,-2.09659 1.64914,-5.70169 0,-3.61788 -1.64914,-5.71446 -1.63636,-2.09658 -4.44885,-2.09658 z m 0,-2.09659 q 4.01419,0 6.41759,2.69744 2.4034,2.68464 2.4034,7.21019 0,4.51277 -2.4034,7.2102 -2.4034,2.68465 -6.41759,2.68465 -4.02697,0 -6.44316,-2.68465 -2.4034,-2.68465 -2.4034,-7.2102 0,-4.52555 2.4034,-7.21019 2.41619,-2.69744 6.44316,-2.69744 z"
         inkscape:connector-curvature="0"
         style="fill:#c68787;fill-opacity:1" />
      <path
         d="m 212.74554,376.64557 c 5.56939,0.74259 11.06209,1.81344 16.554,3.13663 -0.26745,3.52108 -0.45608,6.61394 -0.59195,9.3037 -2.2669,-0.37645 -4.53398,-0.72403 -6.80825,-1.03818 -0.46587,11.93342 -0.53055,30.95845 0.23497,45.38443 -0.87548,0.12248 -1.75133,0.23954 -2.62788,0.35098 -0.6929,-14.56722 -0.63664,-34.0338 -0.22063,-46.081 -2.27703,-0.28743 -4.55434,-0.53858 -6.8385,-0.74971 0.0667,-2.97595 0.1613,-6.40219 0.29824,-10.30685 z"
         id="path4343"
         inkscape:original-d="m 212.75652,399.66251 16.14624,0 0,2.17329 -6.77554,0 0,16.91328 -2.59516,0 0,-16.91328 -6.77554,0 0,-2.17329 z"
         inkscape:connector-curvature="0"
         style="fill:#c68787;fill-opacity:1" />
      <path
         d="m 229.18242,379.75402 c 0.94146,0.22621 1.88151,0.45952 2.82057,0.69948 0.74972,12.74862 2.51701,19.54334 4.19188,24.43543 2.21855,-6.07691 3.11386,-9.59345 6.46582,-21.44505 0.93,0.28153 1.85856,0.56726 2.78623,0.85671 -4.76222,15.91386 -4.64222,15.92818 -7.99348,24.46185 -0.004,3.90001 -0.0866,11.61758 0.8117,21.85405 -0.86813,0.17801 -1.73666,0.35247 -2.60604,0.52312 -0.86327,-10.52907 -0.78985,-18.40707 -0.78634,-22.41048 -2.10616,-5.57512 -4.65734,-12.5773 -5.69034,-28.97511 z"
         id="path4345"
         inkscape:original-d="m 228.78771,399.66251 2.77413,0 5.2926,7.8494 5.25424,-7.8494 2.77414,0 -6.74998,9.99712 0,9.08945 -2.59516,0 0,-9.08945 -6.74997,-9.99712 z"
         inkscape:connector-curvature="0"
         style="fill:#c68787;fill-opacity:1" />
      <path
         d="m 249.78189,393.07524 c -0.54204,6.40133 -0.50312,11.75056 -0.50713,14.7661 1.08048,0.0271 2.16141,0.054 3.24332,0.0807 1.19534,0.0295 2.13659,-0.40265 2.78735,-1.29065 0.663,-0.90471 0.97567,-2.18653 1.01474,-4.2234 0.0387,-2.01796 -0.19675,-4.01952 -0.73864,-5.62651 -0.5514,-1.63518 -1.36923,-2.72694 -2.57268,-2.99387 -1.07549,-0.23854 -2.15034,-0.47612 -3.22696,-0.71238 z m -1.79874,-7.97386 c 1.94593,0.62129 3.88359,1.25486 5.81989,1.89643 2.1582,0.71508 3.42774,3.02982 4.20458,6.06372 0.75411,2.88179 1.08213,6.54594 1.02944,9.61029 -0.0544,3.16649 -0.54459,4.96069 -1.67112,6.30927 -1.08384,1.3077 -2.72547,2.04509 -4.85123,2.07099 -1.08266,0.0132 -2.16128,0.0262 -3.24257,0.0391 8.2e-4,3.35032 -0.0369,9.12354 0.85862,16.89992 -0.85826,0.20121 -1.71677,0.40062 -2.57623,0.59798 -1.11994,-10.2724 -1.30783,-29.68125 0.42862,-43.4877 z"
         id="path4347"
         inkscape:original-d="m 249.99643,401.78466 0,7.17185 3.24714,0 q 1.80255,0 2.78693,-0.93324 0.98437,-0.93323 0.98437,-2.65908 0,-1.71306 -0.98437,-2.64629 -0.98438,-0.93324 -2.78693,-0.93324 l -3.24714,0 z m -2.58238,-2.12215 5.82952,0 q 3.2088,0 4.84516,1.45738 1.64914,1.4446 1.64914,4.2443 0,2.82528 -1.64914,4.26987 -1.63636,1.4446 -4.84516,1.4446 l -3.24714,0 0,7.67042 -2.58238,0 0,-19.08657 z"
         inkscape:connector-curvature="0"
         style="fill:#c68787;fill-opacity:1" />
      <path
         d="m 263.69532,390.31525 c 3.97203,1.33417 7.94066,2.6527 11.88674,3.88482 -0.36504,1.60177 -0.59109,3.05117 -0.73309,4.35254 -3.13395,-0.59552 -6.26816,-1.23837 -9.40068,-1.90435 -0.41045,3.97284 -0.36916,7.35335 -0.35355,9.64954 3.04569,0.13754 6.09755,0.26385 9.16373,0.37323 0.0181,0.89269 0.0296,1.65923 0.0287,2.50925 -3.07789,-0.0225 -6.12449,-0.0492 -9.18051,-0.0796 -0.002,2.14942 -0.12446,6.52298 0.15962,10.29066 3.21624,-0.46395 6.44561,-0.91383 9.6684,-1.32748 0.0827,1.16223 0.22907,2.45467 0.48947,3.88147 -4.03504,0.91025 -8.10881,1.89246 -12.1586,2.87809 -0.98489,-6.63378 -1.17453,-25.43874 0.42973,-34.50813 z"
         id="path4349"
         inkscape:original-d="m 263.21512,399.66251 12.06814,0 0,2.17329 -9.48576,0 0,5.65054 9.08945,0 0,2.17329 -9.08945,0 0,6.91617 9.71587,0 0,2.17328 -12.29825,0 0,-19.08657 z"
         inkscape:connector-curvature="0"
         style="fill:#c68787;fill-opacity:1" />
      <path
         d="m 288.52872,409.39327 c 0.56754,0.19051 1.12169,0.59678 1.6313,1.21424 0.52786,0.62872 1.00188,1.45822 1.4556,2.55894 0.7066,1.67144 1.4913,3.64545 2.70201,5.19452 -0.91483,0.13013 -1.82912,0.26803 -2.74294,0.41302 -1.1744,-1.65762 -1.95965,-3.59623 -2.63679,-5.21817 -0.55257,-1.34056 -1.11995,-2.1917 -1.7225,-2.62339 -0.58407,-0.42476 -1.40985,-0.6384 -2.45539,-0.63516 -0.95981,0.003 -1.91899,0.006 -2.87573,0.01 -0.0492,2.30528 -0.46836,6.37758 0.30128,10.18161 -0.84921,0.17303 -1.6985,0.35027 -2.54775,0.53117 -0.51847,-2.66097 -0.60607,-21.64065 0.35994,-25.47775 1.90548,0.56193 3.80949,1.09915 5.71315,1.60459 2.13298,0.56631 3.50956,1.64 4.37689,2.86857 0.83991,1.18972 1.41385,2.83438 1.56068,4.67537 0.10008,1.2548 -0.0956,2.23681 -0.6484,3.04622 -0.53504,0.79627 -1.37474,1.34797 -2.47135,1.65623 z m -6.64373,-9.6708 c -0.31997,2.91718 -0.0404,6.39932 -1.5e-4,8.33892 1.10502,0.0158 2.21168,0.0298 3.32083,0.0421 1.27192,0.014 2.23535,-0.27253 2.85249,-0.85124 0.63501,-0.59633 0.88927,-1.44971 0.81279,-2.65491 -0.0756,-1.19141 -0.42521,-2.18683 -1.03119,-2.9172 -0.60278,-0.74651 -1.49052,-1.26118 -2.72799,-1.44735 -1.07638,-0.16193 -2.15189,-0.33233 -3.22678,-0.51028 z"
         id="path4351"
         inkscape:original-d="m 288.83435,409.80026 q 0.83097,0.28124 1.61079,1.2017 0.79261,0.92045 1.58522,2.53124 l 2.62073,5.21588 -2.77413,0 -2.44176,-4.89628 q -0.94602,-1.91761 -1.8409,-2.54403 -0.8821,-0.62642 -2.41618,-0.62642 l -2.81249,0 0,8.06673 -2.58238,0 0,-19.08657 5.82953,0 q 3.27271,0 4.8835,1.36789 1.61079,1.3679 1.61079,4.12925 0,1.80255 -0.84375,2.99146 -0.83096,1.18892 -2.42897,1.64915 z m -6.46872,-8.0156 0,6.77554 3.24715,0 q 1.86647,0 2.81248,-0.85653 0.95881,-0.86931 0.95881,-2.54402 0,-1.67471 -0.95881,-2.51846 -0.94601,-0.85653 -2.81248,-0.85653 l -3.24715,0 z"
         inkscape:connector-curvature="0"
         style="fill:#c68787;fill-opacity:1" />
    </g>
  </g>
</svg>
