<?xml version="1.0" encoding="UTF-8" standalone="no"?>
<!-- Created with Inkscape (http://www.inkscape.org/) -->

<svg
   xmlns:dc="http://purl.org/dc/elements/1.1/"
   xmlns:cc="http://creativecommons.org/ns#"
   xmlns:rdf="http://www.w3.org/1999/02/22-rdf-syntax-ns#"
   xmlns:svg="http://www.w3.org/2000/svg"
   xmlns="http://www.w3.org/2000/svg"
   xmlns:xlink="http://www.w3.org/1999/xlink"
   xmlns:sodipodi="http://sodipodi.sourceforge.net/DTD/sodipodi-0.dtd"
   xmlns:inkscape="http://www.inkscape.org/namespaces/inkscape"
   width="5in"
   height="5in"
   viewBox="0 0 450.00001 450.00001"
   id="svg2"
   version="1.1"
   inkscape:version="0.91 r13725"
   sodipodi:docname="logo.svg">
  <sodipodi:namedview
     id="base"
     pagecolor="#fcfcfc"
     bordercolor="#666666"
     borderopacity="1.0"
     inkscape:pageopacity="0"
     inkscape:pageshadow="2"
     inkscape:zoom="1.4"
     inkscape:cx="198.7844"
     inkscape:cy="203.77076"
     inkscape:document-units="px"
     inkscape:current-layer="layer2"
     showgrid="false"
     units="in"
     inkscape:window-width="1440"
     inkscape:window-height="851"
     inkscape:window-x="44"
     inkscape:window-y="10"
     inkscape:window-maximized="0" />
  <defs
     id="defs4">
    <inkscape:path-effect
       effect="envelope"
       id="path-effect8716"
       is_visible="true"
       yy="true"
       xx="true"
       bendpath1="m 86.112149,298.16474 c 21.913591,8.66721 45.669421,-37.09096 74.355801,-12.29383 27.17098,23.48718 140.95262,69.91779 175.67911,16.55783 30.15631,-46.33754 74.7369,-4.44912 107.93105,-4.264"
       bendpath2="m 444.07811,298.16474 c -0.005,21.53376 -10.72484,16.13386 0,64.64155"
       bendpath3="m 86.112149,362.80629 c 169.415541,67.59519 283.055491,59.92797 357.965961,0"
       bendpath4="m 86.112149,298.16474 0,64.64155"
       bendpath2-nodetypes="cc"
       bendpath1-nodetypes="cssc"
       bendpath3-nodetypes="cc" />
    <inkscape:path-effect
       effect="knot"
       id="path-effect8703"
       is_visible="true"
       interruption_width="3"
       prop_to_stroke_width="true"
       add_stroke_width="true"
       add_other_stroke_width="true"
       switcher_size="15"
       crossing_points_vector="" />
    <inkscape:path-effect
       bendpath3-nodetypes="cc"
       bendpath1-nodetypes="cc"
       bendpath4="m 13.884766,304.46762 0,30.25391"
       bendpath3="m 13.884766,334.72153 c 137.057294,66.31204 274.114584,70.80051 411.171874,0"
       bendpath2="m 425.05664,304.46762 0,30.25391"
       bendpath1="m 13.884766,304.46762 c 137.057294,-45.12894 274.114584,-48.18376 411.171874,0"
       xx="false"
       yy="true"
       is_visible="true"
       id="path-effect5795"
       effect="envelope" />
    <linearGradient
       id="linearGradient5663"
       inkscape:collect="always">
      <stop
         id="stop5665"
         offset="0"
         style="stop-color:#e9e6e6;stop-opacity:1;" />
      <stop
         id="stop5667"
         offset="1"
         style="stop-color:#e9e6e6;stop-opacity:0;" />
    </linearGradient>
    <radialGradient
       inkscape:collect="always"
       xlink:href="#linearGradient5663"
       id="radialGradient8739"
       cx="178.75345"
       cy="123.87248"
       fx="178.75345"
       fy="123.87248"
       r="104.35471"
       gradientTransform="matrix(-1.9148476,-0.70084074,0.09925352,-1.3115288,508.7443,411.6125)"
       gradientUnits="userSpaceOnUse" />
  </defs>
  <metadata
     id="metadata7">
    <rdf:RDF>
      <cc:Work
         rdf:about="">
        <dc:format>image/svg+xml</dc:format>
        <dc:type
           rdf:resource="http://purl.org/dc/dcmitype/StillImage" />
        <dc:title></dc:title>
      </cc:Work>
    </rdf:RDF>
  </metadata>
  <g
     transform="translate(0,-602.36215)"
     id="layer1"
     inkscape:groupmode="layer"
     inkscape:label="Layer 1">
    <rect
       transform="matrix(0.61343108,0.78974826,-0.77257736,0.63492064,0,0)"
       ry="16.322073"
       y="265.3721"
       x="783.2146"
       height="36.463917"
       width="230.04533"
       id="rect4164"
       style="opacity:0.931;fill:#000000;fill-opacity:1;fill-rule:nonzero;stroke:#000000;stroke-width:4.87135839;stroke-linecap:butt;stroke-linejoin:round;stroke-miterlimit:4;stroke-dasharray:none;stroke-dashoffset:0;stroke-opacity:1" />
    <g
       id="g8643"
       transform="matrix(1.1504929,-0.09910427,0.08947128,1.1508683,-71.330619,-128.19531)">
      <path
         inkscape:connector-curvature="0"
         style="opacity:0.931;fill:none;fill-opacity:1;fill-rule:evenodd;stroke:#c68787;stroke-width:4.08049822;stroke-linecap:butt;stroke-linejoin:round;stroke-miterlimit:4;stroke-dasharray:none;stroke-dashoffset:0;stroke-opacity:1"
         d="m 6.9053666,757.28445 c 4.3228994,-11.23262 9.1690884,-16.41133 15.2298854,-7.53817 6.060799,8.87315 12.432285,21.34065 17.222072,15.50947 4.789788,-5.8312 8.518161,-23.94192 13.771504,-24.41022 5.253341,-0.46834 12.034426,16.73781 17.755877,21.68506 5.72145,4.94724 9.858201,-8.43898 14.305311,-18.23461 4.447108,-9.79566 10.111273,-5.51124 16.297494,4.81301 6.18623,10.32424 11.84917,14.59454 16.29749,4.81302 4.44834,-9.78155 8.58598,-23.15743 14.30532,-18.23463 5.71934,4.92282 12.50009,22.12514 17.75587,21.68506 5.25579,-0.44005 8.98383,-18.55458 13.77151,-24.41021 4.78767,-5.85563 11.16005,6.62221 17.22207,15.50946 6.06201,8.88727 10.907,3.69446 15.22988,-7.53817 4.3229,-11.23263 9.16909,-16.41132 15.22989,-7.53817 6.0608,8.87315 12.43229,21.34065 17.22207,15.50947 4.78979,-5.8312 8.51816,-23.94192 13.77151,-24.41022 5.25334,-0.46835 12.03443,16.73781 17.75587,21.68506 5.72146,4.94723 9.8582,-8.43898 14.30533,-18.23462 4.44709,-9.79565 10.11126,-5.51123 16.29748,4.81301 6.18622,10.32425 11.84916,14.59455 16.29751,4.81302 4.44832,-9.78154 8.58596,-23.15742 14.30529,-18.23461 5.71934,4.9228 12.50009,22.12513 17.75589,21.68505 5.25577,-0.44005 8.98383,-18.55459 13.77149,-24.41021 4.78769,-5.85563 11.16007,6.6222 17.22207,15.50946 6.06203,8.88727 10.90699,3.69445 15.22989,-7.53817"
         title="sin(x)"
         id="path8601" />
      <path
         id="path8641"
         title="sin(x)"
         d="m 14.905367,757.28445 c 4.322899,-11.23262 9.169088,-16.41133 15.229885,-7.53817 6.060799,8.87315 12.432285,21.34065 17.222072,15.50947 4.789788,-5.8312 8.518161,-23.94192 13.771504,-24.41022 5.253341,-0.46834 12.034426,16.73781 17.755877,21.68506 5.72145,4.94724 9.858201,-8.43898 14.305311,-18.23461 4.447104,-9.79566 10.111274,-5.51124 16.297494,4.81301 6.18623,10.32424 11.84917,14.59454 16.29749,4.81302 4.44834,-9.78155 8.58598,-23.15743 14.30532,-18.23463 5.71934,4.92282 12.50009,22.12514 17.75587,21.68506 5.25579,-0.44005 8.98383,-18.55458 13.77151,-24.41021 4.78767,-5.85563 11.16005,6.62221 17.22207,15.50946 6.06201,8.88727 10.907,3.69446 15.22988,-7.53817 4.3229,-11.23263 9.16909,-16.41132 15.22989,-7.53817 6.0608,8.87315 12.43229,21.34065 17.22207,15.50947 4.78979,-5.8312 8.51816,-23.94192 13.77151,-24.41022 5.25334,-0.46835 12.03443,16.73781 17.75587,21.68506 5.72146,4.94723 9.8582,-8.43898 14.30533,-18.23462 4.44709,-9.79565 10.11126,-5.51123 16.29748,4.81301 6.18622,10.32425 11.84916,14.59455 16.29751,4.81302 4.44832,-9.78154 8.58596,-23.15742 14.30529,-18.23461 5.71934,4.9228 12.50009,22.12513 17.75589,21.68505 5.25577,-0.44005 8.98383,-18.55459 13.77149,-24.41021 4.78769,-5.85563 11.16007,6.6222 17.22207,15.50946 6.06203,8.88727 10.90699,3.69445 15.22989,-7.53817"
         style="opacity:0.931;fill:none;fill-opacity:1;fill-rule:evenodd;stroke:#c68787;stroke-width:4.08049822;stroke-linecap:butt;stroke-linejoin:round;stroke-miterlimit:4;stroke-dasharray:none;stroke-dashoffset:0;stroke-opacity:1"
         inkscape:connector-curvature="0" />
    </g>
  </g>
  <g
     inkscape:label="Layer 2"
     id="layer2"
     inkscape:groupmode="layer">
    <ellipse
       transform="matrix(0.9972959,-0.07349075,0.24894325,0.96851807,0,0)"
       ry="102.95805"
       rx="101.33071"
       cy="138.09731"
       cx="166.2343"
       id="path4136"
       style="opacity:0.931;fill:#ffffff;fill-opacity:1;fill-rule:nonzero;stroke:#000000;stroke-width:6.04798746;stroke-linecap:butt;stroke-linejoin:round;stroke-miterlimit:4;stroke-dasharray:none;stroke-dashoffset:0;stroke-opacity:1" />
    <ellipse
       style="opacity:0.931;fill:#ffffff;fill-opacity:1;fill-rule:nonzero;stroke:#000000;stroke-width:6.04798746;stroke-linecap:butt;stroke-linejoin:round;stroke-miterlimit:4;stroke-dasharray:none;stroke-dashoffset:0;stroke-opacity:1"
       id="ellipse4175"
       cx="168.95406"
       cy="134.03307"
       rx="101.33071"
       ry="102.95805"
       transform="matrix(0.9972959,-0.07349075,0.24894325,0.96851807,0,0)" />
    <ellipse
       transform="matrix(0.9972959,-0.07349075,0.24894325,0.96851807,0,0)"
       ry="102.95805"
       rx="101.33071"
       cy="129.96883"
       cx="171.67381"
       id="ellipse4177"
       style="opacity:0.931;fill:#ffffff;fill-opacity:1;fill-rule:nonzero;stroke:#000000;stroke-width:6.04798746;stroke-linecap:butt;stroke-linejoin:round;stroke-miterlimit:4;stroke-dasharray:none;stroke-dashoffset:0;stroke-opacity:1" />
    <ellipse
       style="opacity:0.931;fill:none;fill-opacity:1;fill-rule:nonzero;stroke:#000000;stroke-width:6.04798746;stroke-linecap:butt;stroke-linejoin:round;stroke-miterlimit:4;stroke-dasharray:none;stroke-dashoffset:0;stroke-opacity:1"
       id="ellipse4183"
       cx="171.67381"
       cy="129.96883"
       rx="101.33071"
       ry="102.95805"
       transform="matrix(0.9972959,-0.07349075,0.24894325,0.96851807,0,0)" />
    <ellipse
       style="opacity:0.931;fill:#ffffff;fill-opacity:1;fill-rule:nonzero;stroke:#000000;stroke-width:6.04798746;stroke-linecap:butt;stroke-linejoin:round;stroke-miterlimit:4;stroke-dasharray:none;stroke-dashoffset:0;stroke-opacity:1"
       id="ellipse4185"
       cx="171.67381"
       cy="129.96883"
       rx="101.33071"
       ry="102.95805"
       transform="matrix(0.9972959,-0.07349075,0.24894325,0.96851807,0,0)" />
    <ellipse
       transform="matrix(0.9972959,-0.07349075,0.24894325,0.96851807,0,0)"
       ry="102.95805"
       rx="101.33071"
       cy="127.93671"
       cx="174.03369"
       id="ellipse4191"
       style="opacity:0.931;fill:#ffffff;fill-opacity:1;fill-rule:nonzero;stroke:#000000;stroke-width:6.04798746;stroke-linecap:butt;stroke-linejoin:round;stroke-miterlimit:4;stroke-dasharray:none;stroke-dashoffset:0;stroke-opacity:1" />
    <ellipse
       style="opacity:0.931;fill:#ffffff;fill-opacity:1;fill-rule:nonzero;stroke:#000000;stroke-width:6.04798746;stroke-linecap:butt;stroke-linejoin:round;stroke-miterlimit:4;stroke-dasharray:none;stroke-dashoffset:0;stroke-opacity:1"
       id="ellipse4193"
       cx="176.39357"
       cy="125.9046"
       rx="101.33071"
       ry="102.95805"
       transform="matrix(0.9972959,-0.07349075,0.24894325,0.96851807,0,0)" />
    <ellipse
       transform="matrix(0.9972959,-0.07349075,0.24894325,0.96851807,0,0)"
       ry="102.95805"
       rx="101.33071"
       cy="123.87248"
       cx="178.75345"
       id="ellipse4195"
       style="opacity:0.931;fill:url(#radialGradient8739);fill-opacity:1;fill-rule:evenodd;stroke:#000000;stroke-width:6.04798746;stroke-linecap:butt;stroke-linejoin:round;stroke-miterlimit:4;stroke-dasharray:none;stroke-dashoffset:0;stroke-opacity:1" />
    <g
       inkscape:transform-center-y="111.52387"
       inkscape:transform-center-x="-22.308376"
       inkscape:path-effect="#path-effect5795"
       id="flowRoot5690"
       style="font-style:normal;font-weight:normal;font-size:40px;line-height:125%;font-family:Sans;letter-spacing:0px;word-spacing:0px;fill:#000000;fill-opacity:1;stroke:none;stroke-width:1px;stroke-linecap:butt;stroke-linejoin:miter;stroke-opacity:1"
       transform="matrix(0.45583812,-0.07826644,0.12474602,0.56398994,68.093127,-57.427297)">
      <path
         inkscape:connector-curvature="0"
         inkscape:original-d="m 27.244141,308.88169 -5.351563,14.51171 10.722656,0 -5.371093,-14.51171 z m -2.226563,-3.88672 4.472656,0 11.113282,29.16015 -4.101563,0 -2.65625,-7.48047 -13.144531,0 -2.65625,7.48047 -4.160156,0 11.132812,-29.16015 z"
         id="path5765"
         style="fill:#ff0014;fill-opacity:1"
         d="m 29.312374,305.96561 c 0.729367,6.96562 -0.11133,13.20765 -2.626406,18.69599 3.336528,0.53736 6.684186,1.06539 10.042586,1.58349 -0.82052,-7.27651 -3.255778,-14.03883 -7.41618,-20.27948 z m -4.481987,-4.66645 c 1.449089,-0.44557 2.899617,-0.88684 4.351554,-1.32377 10.209928,12.81983 13.420932,27.79992 10.571996,44.87246 -1.30537,-0.53204 -2.608732,-1.06866 -3.910066,-1.60979 0.815946,-4.12027 1.224199,-8.11225 1.209942,-11.97508 -4.1224,-0.97285 -8.227423,-1.97013 -12.314362,-2.99036 -1.657491,2.66146 -3.765824,5.12698 -6.338422,7.39269 -1.300972,-0.58858 -2.59976,-1.18149 -3.896342,-1.77863 10.326515,-7.66513 13.481197,-18.61375 10.3257,-32.58752 z" />
      <path
         inkscape:connector-curvature="0"
         inkscape:original-d="m 37.673828,304.99497 24.667969,0 0,3.32031 -10.351563,0 0,25.83984 -3.964843,0 0,-25.83984 -10.351563,0 0,-3.32031 z"
         id="path5767"
         style="fill:#0015ff;fill-opacity:1"
         d="m 37.165724,297.6208 c 8.03575,-2.32166 16.112727,-4.50953 24.225953,-6.55803 0.618265,2.38435 1.163036,4.7645 1.634312,7.14045 -3.367118,0.62644 -6.727624,1.27103 -10.081153,1.93354 3.93064,16.62341 3.172952,32.96839 -2.273067,49.03495 -1.272476,-0.48923 -2.54313,-0.98291 -3.811944,-1.48099 5.522336,-15.30738 6.267238,-30.90232 2.234708,-46.78483 -3.348131,0.67619 -6.689146,1.37021 -10.022679,2.0818 -0.552729,-1.78382 -1.188106,-3.57279 -1.90613,-5.36689 z" />
      <path
         inkscape:connector-curvature="0"
         inkscape:original-d="m 86.052734,329.99497 0,-7.83203 -6.445312,0 0,-3.24219 10.351562,0 0,12.51953 q -2.285156,1.62109 -5.039062,2.46094 -2.753906,0.82031 -5.878906,0.82031 -6.835938,0 -10.703125,-3.98438 -3.847657,-4.0039 -3.847657,-11.13281 0,-7.14844 3.847657,-11.13281 3.867187,-4.00391 10.703125,-4.00391 2.851562,0 5.410156,0.70313 2.578125,0.70312 4.746094,2.07031 l 0,4.19922 q -2.1875,-1.85547 -4.648438,-2.79297 -2.460937,-0.9375 -5.175781,-0.9375 -5.351563,0 -8.046875,2.98828 -2.675781,2.98828 -2.675781,8.90625 0,5.89844 2.675781,8.88672 2.695312,2.98828 8.046875,2.98828 2.089844,0 3.730469,-0.35156 1.640625,-0.37109 2.949218,-1.13281 z"
         id="path5769"
         style="fill:#1aff00;fill-opacity:1"
         d="m 85.819819,350.11794 c 1.040984,-6.68462 1.725203,-13.38752 2.052657,-20.10869 -2.076228,-0.19508 -4.149382,-0.39387 -6.219378,-0.59626 0.137079,-2.65407 0.210538,-5.31151 0.220376,-7.97232 3.326496,0.11536 6.660467,0.22795 10.00156,0.33746 -0.05842,11.05744 -1.005734,22.07034 -2.841925,33.03871 -1.970082,2.45609 -4.044865,4.08808 -6.152193,4.94369 -2.103207,0.82375 -4.193529,0.84757 -6.241081,0.15409 -4.533149,-1.53534 -7.072867,-5.92106 -8.337407,-12.49351 -1.277767,-6.76573 -1.092252,-14.63348 -0.96301,-25.02205 0.129713,-10.42642 0.135045,-18.29761 1.607653,-24.91191 1.441924,-6.47462 4.113158,-10.61118 8.701866,-11.69853 1.890653,-0.44801 3.807245,-0.28271 5.72537,0.5589 1.929081,0.83793 3.81009,2.32565 5.590554,4.49834 0.539924,3.71821 0.979345,7.43136 1.318265,11.13946 -1.724467,-3.13127 -3.552158,-5.35163 -5.380905,-6.70673 -1.832711,-1.35804 -3.659809,-1.83672 -5.439308,-1.51966 -3.538268,0.63042 -5.682391,3.5585 -6.810701,8.38972 -1.149185,4.97456 -1.211092,11.48082 -1.327247,20.45461 -0.115708,8.93928 -0.217223,15.43054 0.792825,20.50242 0.993765,4.93021 3.044476,8.06718 6.549259,9.0398 1.358445,0.37698 2.625275,0.42261 3.797987,0.11764 1.177451,-0.33731 2.301158,-1.04764 3.354783,-2.14518 z" />
      <path
         inkscape:connector-curvature="0"
         inkscape:original-d="m 117.06836,329.99497 0,-7.83203 -6.44531,0 0,-3.24219 10.35156,0 0,12.51953 q -2.28516,1.62109 -5.03906,2.46094 -2.75391,0.82031 -5.87891,0.82031 -6.83594,0 -10.703124,-3.98438 -3.847657,-4.0039 -3.847657,-11.13281 0,-7.14844 3.847657,-11.13281 3.867184,-4.00391 10.703124,-4.00391 2.85156,0 5.41016,0.70313 2.57812,0.70312 4.74609,2.07031 l 0,4.19922 q -2.1875,-1.85547 -4.64844,-2.79297 -2.46093,-0.9375 -5.17578,-0.9375 -5.35156,0 -8.04687,2.98828 -2.675784,2.98828 -2.675784,8.90625 0,5.89844 2.675784,8.88672 2.69531,2.98828 8.04687,2.98828 2.08985,0 3.73047,-0.35156 1.64063,-0.37109 2.94922,-1.13281 z"
         id="path5771"
         style="fill:#1aff00;fill-opacity:1"
         d="m 116.32613,356.6261 c 0.85831,-8.01237 1.43284,-16.03623 1.72357,-24.07158 -2.10384,-0.15664 -4.20502,-0.31755 -6.30344,-0.48262 0.12458,-3.22353 0.19787,-6.44928 0.21984,-9.67723 2.85792,0.0814 5.72045,0.16019 8.58739,0.23609 0.51169,0.0136 1.02352,0.027 1.5355,0.0404 -0.0909,13.08888 -0.88233,26.15059 -2.37439,39.18514 -0.63241,1.01881 -1.27831,1.9361 -1.93521,2.75275 -1.32313,1.6448 -2.69049,2.88111 -4.08548,3.7204 -2.08355,1.2173 -4.1847,1.51184 -6.27251,0.94917 -4.61491,-1.24371 -7.3798,-6.14467 -8.865691,-14.1206 -1.494368,-8.15314 -1.506767,-18.20469 -1.322328,-31.33041 0.185021,-13.1672 0.474552,-23.20487 2.196409,-31.19524 1.69946,-7.88449 4.58162,-12.56215 9.20312,-13.43195 1.90756,-0.35902 3.81397,0.012 5.69616,1.16302 1.54776,0.93818 3.04771,2.37392 4.47733,4.32247 0.31974,0.43582 0.63592,0.89726 0.94823,1.38441 0.41109,4.39268 0.74282,8.78225 0.99518,13.16872 -0.30285,-0.68573 -0.60925,-1.33698 -0.91862,-1.95383 -1.38829,-2.76775 -2.83701,-4.84528 -4.30369,-6.25225 -1.79562,-1.72253 -3.61007,-2.42369 -5.40654,-2.17001 -3.56747,0.50375 -5.84164,3.86268 -7.13017,9.74718 -1.30305,6.00901 -1.56119,14.20306 -1.7175,25.39118 -0.15577,11.14891 -0.12185,19.33543 1.01679,25.43991 1.12769,5.97987 3.31461,9.52479 6.87871,10.31284 1.3827,0.30573 2.66269,0.2251 3.83593,-0.25692 1.1773,-0.52108 2.28914,-1.4746 3.32141,-2.87106 z" />
      <path
         inkscape:connector-curvature="0"
         inkscape:original-d="m 150.03711,307.24106 0,4.16016 q -1.99219,-1.85547 -4.25781,-2.77344 -2.2461,-0.91797 -4.78516,-0.91797 -5,0 -7.65625,3.06641 -2.65625,3.04687 -2.65625,8.82812 0,5.76172 2.65625,8.82813 2.65625,3.04687 7.65625,3.04687 2.53906,0 4.78516,-0.91797 2.26562,-0.91797 4.25781,-2.77343 l 0,4.12109 q -2.07031,1.40625 -4.39453,2.10937 -2.30469,0.70313 -4.88281,0.70313 -6.6211,0 -10.42969,-4.04297 -3.8086,-4.0625 -3.8086,-11.07422 0,-7.03125 3.8086,-11.07422 3.80859,-4.0625 10.42969,-4.0625 2.61718,0 4.92187,0.70313 2.32422,0.68359 4.35547,2.07031 z"
         id="path5773"
         style="fill:#ffa100;fill-opacity:1"
         d="m 149.58855,282.59235 c 0.28931,4.84 0.52212,9.67851 0.69842,14.51553 -1.47709,-4.23882 -3.05821,-7.33505 -4.68322,-9.30845 -1.61394,-1.97691 -3.28141,-2.85554 -4.97416,-2.67941 -3.35561,0.34914 -5.61192,4.08879 -7.01445,10.96752 -1.42214,6.9203 -1.87257,16.41541 -2.02286,29.0535 -0.14979,12.59591 0.0785,22.1105 1.34672,29.15998 1.25583,6.91971 3.45199,10.7807 6.82999,11.33094 1.70394,0.27755 3.40488,-0.50341 5.07187,-2.38802 1.67815,-1.88055 3.33221,-4.88843 4.89952,-9.04683 -0.2663,4.77996 -0.58804,9.55847 -0.96522,14.33552 -1.65423,3.05128 -3.36751,5.22793 -5.10092,6.55186 -1.72123,1.32717 -3.46841,1.8002 -5.21936,1.45324 -4.53855,-0.89934 -7.44416,-6.17802 -9.14284,-15.36291 -1.71276,-9.32575 -1.99083,-21.10878 -1.80558,-36.17003 0.18578,-15.1037 0.74847,-26.8608 2.66669,-36.02459 1.89511,-9.11035 4.87798,-14.21318 9.37907,-14.83816 1.76297,-0.24479 3.49155,0.32862 5.16606,1.75298 1.68312,1.37691 3.31851,3.60295 4.87027,6.69733 z" />
      <path
         inkscape:connector-curvature="0"
         inkscape:original-d="m 152.12695,304.99497 24.66797,0 0,3.32031 -10.35156,0 0,25.83984 -3.96484,0 0,-25.83984 -10.35157,0 0,-3.32031 z"
         id="path5775"
         style="fill:#0015ff;fill-opacity:1"
         d="m 151.18246,274.50432 c 8.3111,-0.95954 16.64029,-1.75923 24.98253,-2.39343 0.18003,4.10526 0.33687,8.21016 0.47054,12.31471 -3.46718,0.19295 -6.9321,0.40708 -10.39433,0.64209 1.26188,31.31032 0.81563,62.58713 -1.33876,93.83043 -1.3566,-0.1809 -2.71235,-0.3679 -4.06721,-0.56096 2.29959,-30.95804 2.77589,-61.95479 1.42889,-92.99026 -3.4601,0.25097 -6.91734,0.52271 -10.37127,0.81495 -0.20178,-3.88495 -0.43858,-7.7708 -0.71039,-11.65753 z" />
      <path
         inkscape:connector-curvature="0"
         inkscape:original-d="m 200.50586,329.99497 0,-7.83203 -6.44531,0 0,-3.24219 10.35156,0 0,12.51953 q -2.28516,1.62109 -5.03906,2.46094 -2.75391,0.82031 -5.87891,0.82031 -6.83594,0 -10.70312,-3.98438 -3.84766,-4.0039 -3.84766,-11.13281 0,-7.14844 3.84766,-11.13281 3.86718,-4.00391 10.70312,-4.00391 2.85156,0 5.41016,0.70313 2.57812,0.70312 4.74609,2.07031 l 0,4.19922 q -2.1875,-1.85547 -4.64844,-2.79297 -2.46093,-0.9375 -5.17578,-0.9375 -5.35156,0 -8.04687,2.98828 -2.67578,2.98828 -2.67578,8.90625 0,5.89844 2.67578,8.88672 2.69531,2.98828 8.04687,2.98828 2.08985,0 3.73047,-0.35156 1.64063,-0.37109 2.94922,-1.13281 z"
         id="path5777"
         style="fill:#1aff00;fill-opacity:1"
         d="m 200.37284,366.28691 c 0.18931,-9.97581 0.31536,-19.95202 0.37818,-29.92862 -2.1458,-0.0355 -4.2911,-0.0762 -6.43572,-0.12187 0.035,-4.10448 0.0561,-8.20908 0.0633,-12.31381 3.43498,0.0274 6.87152,0.05 10.30895,0.0676 -0.01,15.99559 -0.15321,31.99053 -0.42982,47.98482 -1.63086,4.08478 -3.4313,7.14162 -5.38558,9.1748 -1.95263,1.98308 -4.01983,2.89102 -6.17823,2.7351 -4.74665,-0.34289 -8.17922,-5.71751 -10.42563,-15.85001 -2.24155,-10.2267 -3.03564,-24.01805 -2.93795,-41.71982 0.0979,-17.74368 1.04002,-31.51793 3.34884,-41.61839 2.31181,-10.11168 5.7227,-15.40983 10.38717,-15.6468 1.93598,-0.0984 3.79828,0.70807 5.57267,2.42951 1.78776,1.72102 3.44417,4.30672 4.95867,7.76116 0.0831,5.36272 0.15063,10.72536 0.20251,16.08791 -1.50565,-4.71792 -3.11156,-8.24211 -4.80234,-10.58231 -1.69061,-2.33998 -3.45666,-3.46811 -5.28144,-3.39937 -3.60832,0.13593 -6.19347,4.04012 -7.84275,11.5849 -1.64442,7.582 -2.33441,18.65008 -2.40666,33.44765 -0.072,14.75406 0.51299,25.80734 2.10949,33.44076 1.60043,7.59016 4.19275,11.56569 7.8519,11.78172 1.42411,0.0841 2.70763,-0.29189 3.84598,-1.12901 1.13952,-0.88673 2.17393,-2.28173 3.09848,-4.18594 z" />
      <path
         inkscape:connector-curvature="0"
         inkscape:original-d="m 221.38477,308.88169 -5.35157,14.51171 10.72266,0 -5.37109,-14.51171 z m -2.22657,-3.88672 4.47266,0 11.11328,29.16015 -4.10156,0 -2.65625,-7.48047 -13.14453,0 -2.65625,7.48047 -4.16016,0 11.13281,-29.16015 z"
         id="path5779"
         style="fill:#ff0014;fill-opacity:1"
         d="m 221.53501,285.31744 c -0.65345,6.94174 -1.29941,13.88063 -1.94673,20.82123 -0.0292,0.31333 -0.0585,0.62665 -0.0877,0.93997 -1.06432,11.40624 -2.13168,22.79723 -3.24071,34.18858 1.09173,0.007 2.18349,0.0116 3.27524,0.0149 0,0 0.09,2.8e-4 0.09,2.8e-4 2.45642,0.007 4.91307,0.005 7.36962,-0.005 -1.86009,-18.7165 -3.61151,-37.23285 -5.45971,-55.95995 z m -2.3008,-14.98124 c -1e-5,0 0.14866,-8.6e-4 0.14866,-8.6e-4 0,0 0.0915,-5.1e-4 0.0915,-5.1e-4 1.43794,-0.008 2.87586,-0.0105 4.31373,-0.008 3.78913,37.54143 7.22569,74.96219 11.68487,112.27486 -1.41564,0.0426 -2.83152,0.0781 -4.24755,0.10656 -1.02698,-9.58683 -2.00075,-19.18365 -2.94262,-28.78858 -2.88747,0.0227 -5.7752,0.028 -8.66263,0.0156 0,0 -0.0906,-4.2e-4 -0.0906,-4.2e-4 -1.49996,-0.007 -2.99989,-0.0183 -4.49973,-0.0345 -0.93001,9.59727 -1.89747,19.18328 -2.92359,28.75819 -1.43606,-0.0362 -2.8719,-0.0797 -4.30745,-0.13035 4.46648,-37.28319 7.81696,-74.60821 11.43543,-112.19208 z" />
      <path
         inkscape:connector-curvature="0"
         inkscape:original-d="m 260.1543,307.24106 0,4.16016 q -1.99219,-1.85547 -4.25782,-2.77344 -2.24609,-0.91797 -4.78515,-0.91797 -5,0 -7.65625,3.06641 -2.65625,3.04687 -2.65625,8.82812 0,5.76172 2.65625,8.82813 2.65625,3.04687 7.65625,3.04687 2.53906,0 4.78515,-0.91797 2.26563,-0.91797 4.25782,-2.77343 l 0,4.12109 q -2.07032,1.40625 -4.39453,2.10937 -2.30469,0.70313 -4.88282,0.70313 -6.62109,0 -10.42968,-4.04297 -3.8086,-4.0625 -3.8086,-11.07422 0,-7.03125 3.8086,-11.07422 3.80859,-4.0625 10.42968,-4.0625 2.61719,0 4.92188,0.70313 2.32422,0.68359 4.35547,2.07031 z"
         id="path5781"
         style="fill:#ffa100;fill-opacity:1"
         d="m 260.68107,279.98737 c -0.14391,5.20723 -0.25714,10.41403 -0.33969,15.62041 -1.25387,-4.68824 -2.60043,-8.2204 -4.07305,-10.59618 -1.45733,-2.37171 -3.03964,-3.60081 -4.74706,-3.66585 -3.36185,-0.12807 -6.00935,3.68403 -7.85443,11.47451 -1.83924,7.71802 -2.7811,19.03207 -2.71743,33.78637 0.0635,14.71033 1.10366,25.99939 3.03762,33.74325 1.937,7.70985 4.6617,11.45063 8.07049,11.24738 1.73059,-0.10319 3.32035,-1.37085 4.76506,-3.78001 1.46019,-2.41372 2.77388,-5.98248 3.97118,-10.70607 0.15762,5.15416 0.34535,10.3079 0.56318,15.46123 -1.26206,3.63222 -2.64892,6.40256 -4.17349,8.30252 -1.50978,1.8972 -3.15943,2.91912 -4.9407,3.0466 -4.58132,0.32788 -8.36157,-4.61801 -11.14999,-14.86387 -2.78343,-10.27387 -4.22249,-24.48024 -4.28791,-42.42501 -0.0656,-17.98668 1.2681,-32.22304 3.92634,-42.47564 2.66693,-10.33407 6.33088,-15.36388 10.8331,-15.1373 1.77784,0.0895 3.42348,1.07215 4.93207,2.93004 1.52454,1.81095 2.91444,4.49291 4.18471,8.03762 z" />
      <path
         inkscape:connector-curvature="0"
         inkscape:original-d="m 288.16211,307.24106 0,4.16016 q -1.99219,-1.85547 -4.25781,-2.77344 -2.2461,-0.91797 -4.78516,-0.91797 -5,0 -7.65625,3.06641 -2.65625,3.04687 -2.65625,8.82812 0,5.76172 2.65625,8.82813 2.65625,3.04687 7.65625,3.04687 2.53906,0 4.78516,-0.91797 2.26562,-0.91797 4.25781,-2.77343 l 0,4.12109 q -2.07031,1.40625 -4.39453,2.10937 -2.30469,0.70313 -4.88281,0.70313 -6.6211,0 -10.42969,-4.04297 -3.8086,-4.0625 -3.8086,-11.07422 0,-7.03125 3.8086,-11.07422 3.80859,-4.0625 10.42969,-4.0625 2.61718,0 4.92187,0.70313 2.32422,0.68359 4.35547,2.07031 z"
         id="path5783"
         style="fill:#ffa100;fill-opacity:1"
         d="m 288.86935,282.01433 c -0.2585,4.9221 -0.464,9.84284 -0.6165,14.76222 -1.18521,-4.46333 -2.46103,-7.85345 -3.88438,-10.16524 -1.40714,-2.30568 -2.95762,-3.5414 -4.65913,-3.66926 -3.34465,-0.25134 -6.07896,3.29598 -8.0294,10.75953 -1.93791,7.37216 -3.00001,18.32765 -2.87603,32.56303 0.12362,14.19266 1.37576,25.09747 3.46819,32.44833 2.10088,7.33962 4.93437,10.75536 8.31486,10.35797 1.71906,-0.20208 3.26258,-1.50816 4.63527,-3.87883 1.38895,-2.37758 2.60259,-5.82788 3.69538,-10.34733 0.26252,4.86252 0.57705,9.72371 0.94359,14.58356 -1.14871,3.51493 -2.43607,6.23705 -3.88913,8.15187 -1.43787,1.9104 -3.0423,3.00706 -4.81052,3.25781 -4.53893,0.64365 -8.50321,-3.8201 -11.55783,-13.57569 -3.0424,-9.7573 -4.78928,-23.53058 -4.9298,-40.92867 -0.14084,-17.43912 1.38271,-31.27801 4.21988,-41.08214 2.85476,-9.90824 6.67536,-14.5424 11.1538,-14.09648 1.7719,0.17642 3.38632,1.20093 4.84268,3.0427 1.47409,1.7986 2.79112,4.4091 3.97907,7.81662 z" />
      <path
         inkscape:connector-curvature="0"
         inkscape:original-d="m 304.04102,308.88169 -5.35157,14.51171 10.72266,0 -5.37109,-14.51171 z m -2.22657,-3.88672 4.47266,0 11.11328,29.16015 -4.10156,0 -2.65625,-7.48047 -13.14453,0 -2.65625,7.48047 -4.16016,0 11.13281,-29.16015 z"
         id="path5785"
         style="fill:#ff0014;fill-opacity:1"
         d="m 304.42928,289.19362 c -2.73276,16.19824 -4.60092,32.67238 -5.75927,49.40659 3.52943,-0.2491 7.05181,-0.51517 10.56613,-0.79808 -2.42882,-15.85758 -3.98079,-32.07272 -4.80686,-48.60851 z m -1.30514,-13.46124 c 1.50371,0.20171 3.00665,0.40898 4.5088,0.62177 0.87162,33.1936 4.63761,65.03462 12.55235,95.19833 -1.37696,0.32015 -2.7556,0.63363 -4.13587,0.9404 -1.9258,-7.89968 -3.5905,-15.89865 -5.0138,-23.99191 -4.32919,0.53454 -8.67177,1.03057 -13.02571,1.4877 -0.40168,8.68161 -0.62339,17.42786 -0.68562,26.23666 -1.41325,0.24956 -2.82783,0.49213 -4.24366,0.7277 0.688,-34.77101 3.60074,-68.55996 10.04351,-101.22065 z" />
      <path
         inkscape:connector-curvature="0"
         inkscape:original-d="m 314.4707,304.99497 24.66797,0 0,3.32031 -10.35156,0 0,25.83984 -3.96484,0 0,-25.83984 -10.35157,0 0,-3.32031 z"
         id="path5787"
         style="fill:#0015ff;fill-opacity:1"
         d="m 315.87008,277.57761 c 1.54386,0.23993 3.0868,0.48569 4.62877,0.73727 6.71585,1.09573 13.41338,2.30173 20.089,3.61655 -0.46514,3.21203 -0.87152,6.42127 -1.21915,9.62772 -3.40449,-0.49307 -6.8152,-0.96499 -10.23162,-1.41571 -2.4351,26.33853 -1.60986,52.53543 2.47571,78.59072 -1.32149,0.34454 -2.64471,0.68307 -3.96961,1.01553 -3.95613,-26.57369 -4.76754,-53.27863 -2.43424,-80.11481 -1.89857,-0.24114 -3.79884,-0.47575 -5.70073,-0.7038 -1.52466,-0.18275 -3.0504,-0.36127 -4.57716,-0.53555 0.26615,-3.60424 0.57916,-7.21021 0.93903,-10.81792 z" />
      <path
         inkscape:connector-curvature="0"
         inkscape:original-d="m 362.84961,329.99497 0,-7.83203 -6.44531,0 0,-3.24219 10.35156,0 0,12.51953 q -2.28516,1.62109 -5.03906,2.46094 -2.75391,0.82031 -5.87891,0.82031 -6.83594,0 -10.70312,-3.98438 -3.84766,-4.0039 -3.84766,-11.13281 0,-7.14844 3.84766,-11.13281 3.86718,-4.00391 10.70312,-4.00391 2.85156,0 5.41016,0.70313 2.57812,0.70312 4.74609,2.07031 l 0,4.19922 q -2.1875,-1.85547 -4.64844,-2.79297 -2.46093,-0.9375 -5.17578,-0.9375 -5.35156,0 -8.04687,2.98828 -2.67578,2.98828 -2.67578,8.90625 0,5.89844 2.67578,8.88672 2.69531,2.98828 8.04687,2.98828 2.08985,0 3.73047,-0.35156 1.64063,-0.37109 2.94922,-1.13281 z"
         id="path5789"
         style="fill:#1aff00;fill-opacity:1"
         d="m 363.14012,348.46885 c -1.13099,-6.34601 -1.87429,-12.71335 -2.22993,-19.10203 -2.05449,0.21136 -4.11286,0.41877 -6.17498,0.62208 -0.14584,-2.77846 -0.22803,-5.56031 -0.24657,-8.34554 3.31367,-0.11672 6.61843,-0.23658 9.91375,-0.35916 0.0446,9.91809 1.10464,19.77919 3.18023,29.58331 -0.93435,2.98136 -2.0944,5.47772 -3.56589,7.45353 -1.47544,1.93916 -3.22841,3.29963 -5.27842,3.99065 -4.46693,1.50572 -8.8402,-0.80676 -12.49597,-7.56628 -3.59923,-6.70705 -6.08207,-17.17377 -6.30255,-30.66745 -0.22107,-13.52952 1.92097,-24.2088 5.28712,-31.20361 3.43053,-7.12767 7.72529,-9.87301 12.24508,-8.81322 1.89256,0.44376 3.56036,1.48519 5.01337,3.05372 1.46849,1.57428 2.68185,3.62471 3.69746,6.11282 -0.61683,3.38332 -1.11995,6.76028 -1.50937,10.13089 -1.06892,-3.15046 -2.23348,-5.6633 -3.61009,-7.50298 -1.37117,-1.83241 -2.93311,-2.95113 -4.71417,-3.26694 -3.49659,-0.62001 -6.56293,1.55309 -8.84786,6.84068 -2.23769,5.20883 -3.72032,13.55928 -3.54122,24.46984 0.17853,10.87509 1.92789,19.05424 4.33243,24.04419 2.45373,5.06299 5.58506,6.93912 9.04848,5.97682 1.35549,-0.37661 2.50787,-1.01726 3.45776,-1.89489 0.94502,-0.91117 1.71941,-2.1014 2.34134,-3.55643 z" />
      <path
         inkscape:connector-curvature="0"
         inkscape:original-d="m 395.81836,307.24106 0,4.16016 q -1.99219,-1.85547 -4.25781,-2.77344 -2.2461,-0.91797 -4.78516,-0.91797 -5,0 -7.65625,3.06641 -2.65625,3.04687 -2.65625,8.82812 0,5.76172 2.65625,8.82813 2.65625,3.04687 7.65625,3.04687 2.53906,0 4.78516,-0.91797 2.26562,-0.91797 4.25781,-2.77343 l 0,4.12109 q -2.07031,1.40625 -4.39453,2.10937 -2.30469,0.70313 -4.88281,0.70313 -6.6211,0 -10.42969,-4.04297 -3.8086,-4.0625 -3.8086,-11.07422 0,-7.03125 3.8086,-11.07422 3.80859,-4.0625 10.42969,-4.0625 2.61718,0 4.92187,0.70313 2.32422,0.68359 4.35547,2.07031 z"
         id="path5791"
         style="fill:#ffa100;fill-opacity:1"
         d="m 395.2147,299.64606 c -0.7613,2.46344 -1.39065,4.91852 -1.88803,7.36525 -0.82439,-2.37237 -1.75424,-4.30485 -2.92775,-5.75571 -1.15478,-1.44064 -2.53674,-2.38885 -4.18071,-2.74925 -3.22103,-0.70615 -6.25458,0.82209 -8.67172,4.98286 -2.37042,4.0603 -4.00848,10.56517 -3.88706,18.93049 0.121,8.33588 1.93898,14.64872 4.41322,18.46234 2.51335,3.85448 5.5521,5.0249 8.71053,3.95329 1.61234,-0.54704 2.9489,-1.65171 4.05151,-3.22144 1.1209,-1.58221 1.99192,-3.6168 2.75654,-6.07864 0.53707,2.35856 1.20364,4.70893 1.99969,7.0511 -0.76108,2.08119 -1.68569,3.8666 -2.8531,5.31935 -1.15167,1.44353 -2.54137,2.54323 -4.19075,3.22484 -4.21719,1.7428 -8.57044,0.4501 -12.34725,-4.67476 -3.71824,-5.06467 -6.33481,-13.25955 -6.49431,-23.82407 -0.15997,-10.59551 2.21231,-19.062 5.79012,-24.50747 3.64533,-5.56878 8.00468,-7.37061 12.3268,-6.12081 1.71551,0.49606 3.16942,1.43515 4.37707,2.74173 1.23193,1.28922 2.21273,2.93787 3.0152,4.9009 z" />
      <path
         inkscape:connector-curvature="0"
         inkscape:original-d="m 411.69727,308.88169 -5.35157,14.51171 10.72266,0 -5.37109,-14.51171 z m -2.22657,-3.88672 4.47266,0 11.11328,29.16015 -4.10156,0 -2.65625,-7.48047 -13.14453,0 -2.65625,7.48047 -4.16016,0 11.13281,-29.16015 z"
         id="path5793"
         style="fill:#ff0014;fill-opacity:1"
         d="m 409.56406,305.8139 c -4.25471,6.32638 -6.68949,13.19325 -7.43312,20.59214 3.3197,-0.53943 6.62593,-1.08995 9.91808,-1.65086 -2.54848,-5.52446 -3.33592,-11.85048 -2.48496,-18.94128 z m 0.27071,-6.10422 c 1.44419,0.45927 2.88667,0.92369 4.32739,1.39325 -3.51545,14.22104 -0.4485,25.25923 10.21296,32.80049 -1.26132,0.62019 -2.5253,1.23557 -3.7919,1.84607 -2.65875,-2.24696 -4.8266,-4.70669 -6.51938,-7.37442 -4.03164,1.06896 -8.08604,2.11175 -12.16209,3.12676 0.0393,3.92843 0.52032,7.99107 1.42596,12.18692 -1.30796,0.57329 -2.61845,1.14124 -3.93145,1.70379 -3.17748,-17.42719 -0.0633,-32.68126 10.43851,-45.68286 z" />
    </g>
    <text
       xml:space="preserve"
       style="font-style:normal;font-weight:normal;font-size:40px;line-height:125%;font-family:Sans;letter-spacing:0px;word-spacing:0px;fill:#000000;fill-opacity:1;stroke:none;stroke-width:1px;stroke-linecap:butt;stroke-linejoin:miter;stroke-opacity:1"
       x="-23.571428"
       y="267.14285"
       id="text8655"
       sodipodi:linespacing="125%"><tspan
         sodipodi:role="line"
         id="tspan8657"
         x="-23.571428"
         y="267.14285" /></text>
    <text
       xml:space="preserve"
       style="font-style:normal;font-variant:normal;font-weight:normal;font-stretch:normal;font-size:82.84461975px;line-height:125%;font-family:'Academy Engraved LET';-inkscape-font-specification:'Academy Engraved LET, Normal';text-align:start;letter-spacing:0px;word-spacing:0px;writing-mode:lr-tb;text-anchor:start;fill:#b29170;fill-opacity:1;stroke:none;stroke-width:1px;stroke-linecap:butt;stroke-linejoin:miter;stroke-opacity:1"
       x="3.1351042"
       y="381.51813"
       id="text8672"
       sodipodi:linespacing="125%"><tspan
         sodipodi:role="line"
         id="tspan8674"
         x="3.1351042"
         y="381.51813"
         style="font-style:normal;font-variant:normal;font-weight:normal;font-stretch:normal;font-size:56.25px;line-height:125%;font-family:'Academy Engraved LET';-inkscape-font-specification:'Academy Engraved LET, Normal';text-align:start;writing-mode:lr-tb;text-anchor:start">HMMancestry</tspan></text>
  </g>
</svg>
